<?xml version="1.0" encoding="iso-8859-1"?>
<!-- Uploaded to: SVG Repo, www.svgrepo.com, Generator: SVG Repo Mixer Tools -->
<svg height="800px" width="800px" version="1.1" id="Layer_1" xmlns="http://www.w3.org/2000/svg" xmlns:xlink="http://www.w3.org/1999/xlink" 
	 viewBox="0 0 512.001 512.001" xml:space="preserve">
<path style="fill:#FF4328;" d="M180.386,328.72c-0.183,0.011-0.363,0.017-0.543,0.017c-4.674,0-8.596-3.64-8.88-8.361L152.253,9.429
	c-0.296-4.904,3.445-9.118,8.353-9.413c4.906-0.296,9.127,3.442,9.422,8.346l18.712,310.947
	C189.035,324.213,185.295,328.425,180.386,328.72z"/>
<path style="fill:#97BAA8;" d="M133.445,448.071h182.457v63.93H133.445V448.071L133.445,448.071z"/>
<path style="fill:#B1D7C5;" d="M315.902,464.623H133.445L111.305,77.82h53.009h174.052L315.902,464.623z"/>
<path style="fill:#78A097;" d="M156.367,77.82h17.84l14.532,241.488c0.296,4.904-3.445,9.117-8.353,9.412
	c-0.183,0.011-0.363,0.017-0.543,0.017c-4.674,0-8.596-3.64-8.88-8.361L156.367,77.82z"/>
<path style="fill:#DDC98B;" d="M334.043,152.261l-18.14,312.361H133.445l-17.879-312.361L334.043,152.261L334.043,152.261z"/>
<path style="fill:#FFFFFF;" d="M168.225,415.794v-43.528h44.268v43.528H168.225L168.225,415.794z M251.503,368.084l31.858-30.224
	l-30.738-31.324l-31.858,30.221L251.503,368.084L251.503,368.084z"/>
<path style="fill:#874D20;" d="M337.825,10.009L337.825,10.009c34.581,0,62.871,27.816,62.871,61.817v24.727
	c0,34-28.29,61.817-62.871,61.817l0,0c-34.58,0-62.866-27.817-62.866-61.817V71.827C274.959,37.825,303.245,10.009,337.825,10.009
	L337.825,10.009z"/>
<path style="fill:#663310;" d="M400.696,71.827v24.727c0,33.813-27.982,61.498-62.302,61.803c-0.003-0.146-0.062-0.291-0.178-0.396
	c-20.161-18.497-16.014-53.708,0.315-73.74c16.239-19.923,19.641-55.697,0.122-74.191C372.854,10.471,400.696,38.099,400.696,71.827
	z"/>
<path style="fill:#391B10;" d="M343.863,151.819c3.622,3.322,3.861,8.95,0.534,12.567c-1.756,1.909-4.155,2.878-6.56,2.878
	c-2.153,0-4.311-0.775-6.022-2.344c-24.029-22.046-19.613-63.369-0.621-86.668c14.925-18.311,15.226-48.292,0.621-61.692
	c-3.622-3.324-3.861-8.95-0.534-12.567c3.328-3.619,8.96-3.857,12.582-0.534c10.903,10.004,16.778,25.033,16.542,42.319
	c-0.219,16.038-5.832,31.969-15.4,43.706C331.052,106.603,327.599,136.897,343.863,151.819z"/>
<path style="fill:#BC9A5E;" d="M160.847,152.261h17.84l10.052,167.048c0.296,4.904-3.445,9.117-8.353,9.412
	c-0.183,0.011-0.363,0.017-0.543,0.017c-4.674,0-8.596-3.64-8.88-8.361L160.847,152.261z"/>
</svg>