<?xml version="1.0" encoding="iso-8859-1"?>
<!-- Uploaded to: SVG Repo, www.svgrepo.com, Generator: SVG Repo Mixer Tools -->
<svg height="800px" width="800px" version="1.1" id="Layer_1" xmlns="http://www.w3.org/2000/svg" xmlns:xlink="http://www.w3.org/1999/xlink" 
	 viewBox="0 0 512 512" xml:space="preserve">
<path style="fill:#8E8A86;" d="M503.394,294.246v34.442c0,47.605-38.725,86.333-86.326,86.333h-71.623
	c-8.105,0-14.697-6.609-14.697-14.734c0-8.124,6.592-14.734,14.697-14.734h71.623c31.393,0,56.932-25.511,56.932-56.867v-34.442
	c0-31.356-25.54-56.867-56.932-56.867h-71.623c-8.105,0-14.697-6.609-14.697-14.734s6.592-14.734,14.697-14.734h71.623
	C464.669,207.913,503.394,246.643,503.394,294.246z"/>
<path style="fill:#AFAAA3;" d="M95.118,242.898V137.643c0-6.259,5.061-11.333,11.305-11.333h73.02h133.434h64.878
	c6.244,0,11.305,5.074,11.305,11.333v317.334c0,12.519-10.123,22.666-22.61,22.666H117.866c-12.482,0-22.603-10.139-22.612-22.652
	L95.118,242.898z"/>
<path style="fill:#C4C2BF;" d="M95.205,376.752l-0.086-133.854V137.643c0-6.259,5.061-11.333,11.305-11.333h73.02h100.43v175.667
	c0,59.463-48.086,107.667-107.402,107.667l0,0C142.133,409.644,114.737,397.029,95.205,376.752z"/>
<path style="fill:#899D4D;" d="M91.881,499.123L91.881,499.123c-37.444-14.297-67.736-45.723-78.901-87.38
	c-11.165-41.658-0.652-84.015,24.622-115.11c36.388,13.895,66.021,43.964,77.911,83.882c0.345,1.159,1.894,6.272,2.209,7.446
	L91.881,499.123z"/>
<path style="fill:#A9BE65;" d="M92.776,499.123c-11.3-33.748-6.809-72.248,15.494-103.398c22.303-31.148,57.315-47.817,92.91-48.011
	c11.293,33.745,6.802,72.246-15.501,103.396S128.371,498.927,92.776,499.123L92.776,499.123z"/>
<path d="M417.068,199.307h-19.401v-61.664c0-10.995-8.932-19.939-19.911-19.939H226.127c0.096-0.122,0.186-0.249,0.282-0.369
	c12.138-15.142,19.261-35.707,19.539-56.422c0.299-22.188-7.077-41.44-20.769-54.212c-3.658-3.411-9.381-3.205-12.782,0.462
	c-3.403,3.665-3.196,9.402,0.459,12.813c20.114,18.762,19.848,60.556-0.548,85.999c-2.915,3.637-5.543,7.574-7.879,11.728h-33.477
	c0.096-0.122,0.186-0.25,0.283-0.37c12.136-15.142,19.255-35.707,19.534-56.421c0.298-22.187-7.079-41.44-20.771-54.211
	c-3.657-3.411-9.38-3.205-12.782,0.462c-3.403,3.665-3.196,9.402,0.46,12.813c20.113,18.761,19.849,60.556-0.541,85.998
	c-2.916,3.637-5.544,7.576-7.882,11.729h-42.829c-10.979,0-19.911,8.944-19.911,19.939v105.26l0.048,74.441
	c-13.009-12.305-28.505-22.113-45.888-28.751c-3.472-1.325-7.403-0.273-9.749,2.612C3.066,325.479-6.749,371.372,4.669,413.97
	c11.416,42.596,42.872,77.434,84.143,93.193c0.991,0.379,2.032,0.566,3.07,0.566c0.169,0,0.338-0.021,0.507-0.031
	c0.13,0.006,0.256,0.031,0.387,0.031c0.016,0,0.032,0,0.048,0c24.862-0.138,48.845-7.82,68.94-21.48H366.45
	c17.213,0,31.217-14.029,31.217-31.273v-31.349h19.401c52.346,0,94.932-42.59,94.932-94.94v-34.442
	C512,241.897,469.414,199.307,417.068,199.307z M21.294,409.514c-9.444-35.235-2.286-73.05,19.116-102.425
	c32.478,14.338,56.669,41.683,66.856,75.877l0.015,0.049c-2.093,2.479-4.104,5.04-6.007,7.698
	c-19.434,27.143-26.884,61.039-21.136,93.526C51.372,468.507,29.87,441.512,21.294,409.514z M99.098,490.29
	c-8.238-30.617-2.37-63.661,16.171-89.555c18.542-25.896,47.942-42.108,79.591-44.188c8.234,30.617,2.363,63.658-16.176,89.553
	C160.141,471.994,130.744,488.207,99.098,490.29z M380.454,454.977c0,7.753-6.282,14.06-14.004,14.06H182
	c3.824-4.037,7.4-8.343,10.677-12.918c22.983-32.1,29.212-73.647,16.665-111.137c-1.175-3.511-4.462-5.875-8.161-5.875
	c-0.016,0-0.031,0-0.047,0c-29.743,0.161-58.23,11.117-80.306,30.195c-4.292-11.578-10.036-22.372-17.042-32.184l-0.06-94.222
	V137.641c0-1.503,1.21-2.727,2.699-2.727h35.296c-2.908,8.908-4.586,18.304-4.824,27.698c-0.567,22.338,6.813,41.817,20.781,54.848
	c1.742,1.625,3.953,2.429,6.16,2.429c2.424,0,4.842-0.97,6.623-2.891c3.403-3.665,3.197-9.402-0.459-12.813
	c-17.56-16.383-18.537-45.851-8.957-69.272h35.854c-2.908,8.908-4.585,18.304-4.823,27.698
	c-0.566,22.338,6.814,41.817,20.782,54.848c1.743,1.625,3.953,2.429,6.16,2.429c2.424,0,4.842-0.97,6.623-2.891
	c3.403-3.665,3.197-9.402-0.459-12.815c-17.56-16.382-18.537-45.851-8.96-69.271h161.534c1.489,0,2.699,1.224,2.699,2.727V454.977z
	 M397.667,245.986h19.401c26.647,0,48.326,21.65,48.326,48.261v34.442c0,26.61-21.679,48.26-48.326,48.26h-19.401V245.986z
	 M494.788,328.688c0,42.86-34.865,77.727-77.72,77.727h-19.401V394.16h19.401c36.138,0,65.538-29.372,65.538-65.472v-34.442
	c0-36.103-29.4-65.473-65.538-65.473h-19.401v-12.254h19.401c42.855,0,77.72,34.869,77.72,77.728V328.688z"/>
</svg>