<?xml version="1.0" encoding="iso-8859-1"?>
<!-- Uploaded to: SVG Repo, www.svgrepo.com, Generator: SVG Repo Mixer Tools -->
<svg height="800px" width="800px" version="1.1" id="Capa_1" xmlns="http://www.w3.org/2000/svg" xmlns:xlink="http://www.w3.org/1999/xlink" 
	 viewBox="0 0 450.253 450.253" xml:space="preserve">
<g>
	<g>
		<path style="fill:#B3E8E2;" d="M215.126,412.608v17.645h20v-17.645c-3.263,0.62-6.595,0.938-10,0.938
			C221.721,413.546,218.389,413.228,215.126,412.608z"/>
		<path style="fill:#89634A;" d="M288.013,134.841h-0.506c-3.753,0-7.189-2.102-8.9-5.441c-1.711-3.341-1.407-7.357,0.786-10.403
			c1.723-2.392,2.633-5.216,2.633-8.168c0-7.727-6.286-14.013-14.013-14.013h-17.22h-35.591c-0.024,0-0.048,0.003-0.071,0.003
			c-0.014,0-0.028-0.003-0.042-0.003h-52.85c-0.665,0-1.314,0.063-1.955,0.153c-1.296,2.123-2.058,4.607-2.058,7.272
			c0,1.376,0.206,2.723,0.592,4.013h101.166c5.522,0,10,4.478,10,10c0,5.522-4.478,10-10,10h-0.61H152.745h-0.506
			c-5.062,0-9.492,2.707-11.955,6.741c-1.296,2.123-2.058,4.607-2.058,7.272c0,7.727,6.286,14.013,14.013,14.013h145.773
			c0.665,0,1.315-0.063,1.955-0.153c1.296-2.123,2.058-4.607,2.058-7.272C302.026,141.127,295.74,134.841,288.013,134.841z"/>
		<path style="fill:#B3E8E2;" d="M281.558,292.71c10.062-43.065,14.551-86.538,16.191-106.01H139.958
			c2.185,22.274,6.725,59.225,15.288,95.803c7.796,33.306,17.315,59.685,28.293,78.404c12.429,21.194,26.421,31.94,41.588,31.94
			c5.16,0,10.183-1.247,15.056-3.723c4.526-4.766,8.89-10.723,13.076-17.872C264.242,352.497,273.763,326.072,281.558,292.71z
			 M198.984,309.641c-0.962,0.29-1.934,0.429-2.891,0.429c-4.296,0-8.266-2.791-9.57-7.116c-3.361-11.146-6.514-23.615-9.369-37.059
			c-3.498-16.475-6.543-34.408-9.051-53.302c-0.727-5.475,3.123-10.502,8.598-11.229c5.476-0.736,10.503,3.122,11.229,8.598
			c2.439,18.385,5.396,35.806,8.789,51.778c2.739,12.899,5.752,24.823,8.953,35.439
			C207.266,302.468,204.272,308.047,198.984,309.641z"/>
	</g>
	<g>
		<path d="M328.009,158.28c2.56-4.776,4.016-10.227,4.016-16.015c0-14.02-8.526-26.086-20.667-31.285
			c0.442-2.199,0.667-4.454,0.667-6.74c0-18.755-15.258-34.013-34.013-34.013h-17.22h-22.384l13.413-46.619l52.574,22.259
			c5.087,2.151,10.955-0.225,13.107-5.311c2.153-5.086-0.225-10.954-5.311-13.107L249.231,0.792
			c-2.634-1.116-5.621-1.05-8.204,0.184c-2.582,1.231-4.514,3.511-5.305,6.261l-18.124,62.991H172.24
			c-18.755,0-34.013,15.258-34.013,34.013c0,2.286,0.225,4.541,0.667,6.74c-12.141,5.199-20.667,17.265-20.667,31.285
			c0,5.787,1.456,11.239,4.016,16.015c-0.456,0.341-0.891,0.714-1.288,1.134c-1.89,2.001-2.87,4.692-2.712,7.44
			c0.142,2.45,3.621,60.685,17.476,119.984c14.278,61.11,34.19,100.198,59.407,116.815v26.6h-35.639c-5.522,0-10,4.477-10,10
			c0,5.522,4.478,10,10,10h131.277c5.522,0,10-4.478,10-10c0-5.523-4.478-10-10-10h-35.639v-26.6
			c25.217-16.617,45.129-55.704,59.407-116.815c13.854-59.3,17.334-117.534,17.476-119.984c0.158-2.748-0.822-5.439-2.712-7.44
			C328.901,158.994,328.465,158.621,328.009,158.28z M235.126,412.608v17.645h-20v-17.645v-0.698c3.262,0.62,6.595,0.938,10,0.938
			c3.405,0,6.737-0.318,10-0.938V412.608z M295.058,282.288c-7.795,33.361-17.315,59.787-28.299,78.543
			c-8.213,14.026-17.11,23.484-26.577,28.294c-4.873,2.476-9.896,3.723-15.056,3.723c-15.167,0-29.159-10.746-41.588-31.94
			c-10.978-18.72-20.497-45.099-28.293-78.404c-8.563-36.578-13.103-73.53-15.288-95.803c-0.389-3.965-0.704-7.473-0.953-10.422
			h172.245C309.609,195.75,305.12,239.222,295.058,282.288z M299.968,156.125c-0.641,0.09-1.29,0.153-1.955,0.153H152.24
			c-7.727,0-14.013-6.286-14.013-14.013c0-2.665,0.761-5.149,2.058-7.272c2.463-4.034,6.893-6.741,11.955-6.741h0.506h106.629h0.61
			c5.522,0,10-4.478,10-10c0-5.522-4.478-10-10-10H158.819c-0.386-1.29-0.592-2.636-0.592-4.013c0-2.665,0.761-5.149,2.058-7.272
			c2.463-4.034,6.893-6.741,11.955-6.741h52.85c0.014,0,0.028,0.003,0.042,0.003c0.024,0,0.048-0.003,0.071-0.003h35.591h17.22
			c7.727,0,14.013,6.286,14.013,14.013c0,2.952-0.91,5.776-2.633,8.168c-2.193,3.046-2.497,7.062-0.786,10.403
			c1.711,3.34,5.147,5.441,8.9,5.441h0.506c7.727,0,14.013,6.286,14.013,14.013C312.026,149.327,306.77,155.169,299.968,156.125z"/>
		<path d="M196.718,261.741c-3.393-15.973-6.35-33.394-8.789-51.778c-0.726-5.475-5.753-9.334-11.229-8.598
			c-5.475,0.727-9.324,5.754-8.598,11.229c2.508,18.894,5.553,36.827,9.051,53.302c2.855,13.443,6.008,25.912,9.369,37.059
			c1.305,4.325,5.274,7.116,9.57,7.116c0.956,0,1.929-0.139,2.891-0.429c5.288-1.595,8.282-7.174,6.688-12.461
			C202.47,286.564,199.458,274.641,196.718,261.741z"/>
	</g>
</g>
</svg>